# xmcd
#
# Track frame offsets:
#	182
#	16400
#	30105
#	43870
#	58125
#	74600
#	88330
#	101395
#	114147
#	127812
#	141207
#	155260
#	169205
#	178822
#	189715
#	202700
#	213175
#	224317
#	236142
#	246740
#
# Disc length: 3463 seconds
#
# Revision: 1
# Processed by: cddbd v1.5PL3 Copyright (c) Steve Scherf et al.
# Submitted via: CDex 1.50Beta5
#
DISCID=1f0d8514
DTITLE=Various Artist - WB Soul Masters 2
DYEAR=1992
DGENRE=R&B -> General R&B
TTITLE0=Cool Sounds/Boy Wonder (Who Made Good)
TTITLE1=Cool Sounds/Free (I'm Coming Home)
TTITLE2=Cool Sounds/I'll Take You Back
TTITLE3=Cool Sounds/Where Do Go From Here (America)
TTITLE4=Cool Sounds/Love Like Ours Could Last A Million Years Or More
TTITLE5=Cool Sounds/Who Can I Turn To
TTITLE6=Hypnotics/Beware Of The Stranger
TTITLE7=Hypnotics/There's Only Memories
TTITLE8=Hypnotics/Girl, You Know That I Love You
TTITLE9=Hypnotics/Dance To The Music
TTITLE10=Aristocrats/IP Slippin Dippin
TTITLE11=Aristocrats/Let's Get Together
TTITLE12=The Apollas/Lock Me In Your Heart
TTITLE13=The Apollas/Nobody's Baby
TTITLE14=The Apollas/Who Would Want Me Now
TTITLE15=The Apollas/You'll Always Have Me
TTITLE16=The Apollas/Open The Door, Fool
TTITLE17=The Apollas/Seven Days
TTITLE18=The Enchanters/I'm A Good Man
TTITLE19=The Enchanters/I Wanna Thank You
EXTD=input by Dave Thomas  dave@davethomas.worldonline.co.uk
EXTT0=
EXTT1=
EXTT2=
EXTT3=
EXTT4=
EXTT5=
EXTT6=
EXTT7=
EXTT8=
EXTT9=
EXTT10=
EXTT11=
EXTT12=
EXTT13=
EXTT14=
EXTT15=
EXTT16=
EXTT17=
EXTT18=
EXTT19=
PLAYORDER=
